<?xml version="1.0" standalone="no"?>
<!DOCTYPE svg PUBLIC "-//W3C//DTD SVG 20010904//EN"
 "http://www.w3.org/TR/2001/REC-SVG-20010904/DTD/svg10.dtd">
<svg version="1.0" xmlns="http://www.w3.org/2000/svg" width="1500.000000pt" height="1500.000000pt" viewBox="0 0 1500.000000 1500.000000" preserveAspectRatio="xMidYMid meet">

<g transform="translate(0.000000,1500.000000) scale(0.100000,-0.100000)" fill="#000000" stroke="none">
<path d="M5685 14991 c-6 -5 -41 -14 -80 -20 -157 -24 -363 -111 -510 -216
-178 -127 -378 -356 -506 -577 -126 -221 -269 -567 -333 -810 -117 -440 -173
-759 -217 -1233 -37 -402 -48 -1060 -25 -1525 25 -515 67 -985 122 -1365 8
-60 19 -144 24 -185 9 -76 21 -150 45 -295 8 -44 21 -123 30 -175 9 -52 20
-119 25 -149 6 -30 10 -60 10 -67 0 -7 -49 -70 -108 -141 -386 -458 -819
-1038 -1127 -1510 -44 -67 -85 -124 -92 -127 -11 -4 -115 53 -348 192 -157 94
-403 253 -583 378 -89 61 -88 59 -64 129 21 59 35 174 28 237 -10 106 -24 180
-35 191 -6 6 -11 18 -11 27 0 28 -70 152 -124 218 -50 62 -145 141 -216 178
-190 99 -431 111 -622 30 -59 -25 -71 -21 -124 47 -201 251 -341 526 -388 761
-22 110 -21 284 3 380 87 348 409 639 941 850 25 10 56 23 70 28 161 64 485
150 755 202 260 49 729 106 877 106 85 0 178 21 219 51 16 11 41 40 55 65 50
85 31 204 -41 267 -52 46 -76 52 -191 49 -185 -3 -767 -66 -934 -101 -25 -5
-85 -17 -135 -26 -49 -9 -115 -22 -145 -30 -30 -7 -86 -21 -125 -30 -69 -15
-141 -35 -220 -60 -22 -6 -67 -20 -100 -30 -120 -35 -318 -113 -473 -187 -152
-72 -333 -183 -452 -277 -70 -55 -206 -190 -265 -261 -134 -166 -250 -423
-271 -602 -3 -32 -10 -58 -15 -58 -5 0 -9 -67 -9 -150 0 -86 4 -150 9 -150 5
0 13 -26 16 -57 7 -63 45 -217 71 -285 8 -24 18 -52 21 -63 3 -11 30 -71 59
-132 84 -179 206 -373 344 -547 73 -92 80 -109 55 -142 -8 -10 -15 -28 -15
-40 0 -11 -5 -25 -11 -31 -29 -29 -42 -247 -22 -358 29 -158 119 -313 245
-421 56 -49 161 -114 182 -114 7 0 21 -7 32 -15 10 -8 28 -15 39 -15 11 0 38
-7 60 -15 55 -19 265 -19 320 0 22 8 49 15 61 15 11 0 29 7 40 15 10 8 24 15
31 15 7 0 35 14 64 31 l52 30 91 -63 c217 -149 714 -468 730 -468 2 0 50 -27
106 -60 56 -33 106 -60 111 -60 22 0 6 -54 -37 -127 -175 -294 -432 -791 -529
-1023 -15 -36 -36 -83 -46 -105 -10 -22 -34 -80 -54 -130 -20 -49 -40 -99 -46
-110 -20 -43 -135 -377 -165 -480 -80 -274 -113 -431 -156 -720 -17 -120 -18
-572 0 -680 58 -353 181 -613 389 -817 283 -279 646 -408 1148 -408 99 0 175
-4 175 -9 0 -23 122 -171 177 -216 72 -58 189 -124 220 -125 12 0 24 -4 28 -9
3 -6 27 -13 53 -16 26 -4 72 -11 102 -17 40 -8 78 -7 140 2 215 31 387 128
504 285 89 119 133 231 145 367 3 42 8 78 11 81 3 2 93 41 200 87 328 139 716
329 971 476 74 42 154 88 179 102 25 14 54 31 65 38 27 19 64 17 72 -3 4 -10
27 -52 51 -93 24 -41 58 -100 74 -130 52 -93 205 -336 341 -540 448 -671 931
-1198 1399 -1526 278 -195 616 -341 851 -369 31 -3 57 -11 57 -16 0 -5 68 -9
160 -9 89 0 160 4 160 9 0 5 24 12 53 16 80 10 156 32 285 85 282 114 562 388
766 750 114 204 236 504 300 740 10 36 22 76 28 89 5 14 13 43 18 65 4 23 15
70 23 106 33 142 58 258 67 310 48 297 63 414 90 695 25 271 40 607 40 890 0
204 2 225 18 234 9 5 125 9 257 10 541 2 1053 42 1485 118 138 24 241 43 305
58 144 34 241 58 260 65 11 4 49 16 85 25 36 9 81 23 100 30 19 7 65 22 101
33 36 12 92 32 124 46 31 14 62 26 67 26 11 0 309 146 375 183 126 72 287 192
401 301 203 193 358 473 394 713 6 40 14 73 19 73 5 0 9 70 9 155 0 89 -4 155
-9 155 -5 0 -13 26 -16 58 -7 62 -45 216 -71 284 -8 24 -18 52 -21 63 -3 11
-30 71 -59 132 -84 179 -206 373 -344 547 -66 83 -82 117 -61 130 13 8 48 129
62 213 7 40 9 97 5 130 -12 109 -25 176 -35 186 -6 6 -11 18 -11 28 0 20 -52
120 -89 170 -84 115 -209 216 -321 257 -114 42 -184 54 -300 49 -137 -5 -233
-31 -333 -90 -27 -16 -54 -26 -60 -23 -7 3 -50 33 -97 67 -166 119 -578 384
-710 456 -30 17 -90 52 -133 77 -43 25 -82 46 -87 46 -23 0 -7 53 37 127 151
255 427 787 517 998 21 50 47 108 57 130 27 59 129 314 144 360 7 22 28 81 45
130 59 168 140 445 160 550 4 22 19 101 33 175 15 74 32 176 39 225 17 121 17
573 0 680 -30 186 -81 355 -146 484 -181 359 -500 599 -916 690 -171 38 -209
42 -395 48 -296 8 -632 -34 -945 -119 -41 -11 -98 -26 -126 -33 -28 -8 -77
-23 -110 -33 -32 -11 -88 -29 -124 -40 -90 -29 -289 -99 -325 -116 -16 -7 -52
-22 -80 -32 -27 -10 -61 -24 -75 -31 -14 -7 -29 -13 -33 -13 -4 0 -41 -16 -82
-35 -41 -19 -102 -46 -137 -61 -65 -27 -574 -279 -593 -293 -5 -4 -54 -31
-109 -60 -54 -29 -127 -70 -162 -92 -36 -21 -66 -39 -69 -39 -3 0 -27 -13 -53
-30 -81 -50 -82 -49 -162 95 -74 133 -134 227 -160 251 -35 33 -103 63 -145
63 -16 0 -49 -8 -73 -18 -108 -44 -166 -159 -130 -262 10 -31 139 -262 195
-351 12 -21 23 -42 23 -47 0 -5 -91 -70 -202 -144 -295 -197 -584 -401 -768
-543 -291 -225 -403 -313 -574 -454 -104 -85 -200 -163 -213 -174 -21 -16 -31
-17 -81 -8 -54 11 -129 23 -329 56 -105 18 -256 40 -413 61 -63 9 -144 20
-180 25 -36 6 -110 14 -165 20 -55 6 -132 14 -172 19 -100 12 -140 4 -206 -44
-58 -41 -85 -120 -72 -209 14 -94 124 -176 234 -176 20 0 83 -6 141 -14 58 -8
166 -22 240 -31 74 -9 176 -23 225 -30 296 -46 315 -50 315 -62 0 -7 -28 -39
-62 -71 -333 -307 -503 -468 -723 -687 -169 -169 -413 -424 -570 -595 -174
-191 -190 -206 -199 -192 -7 12 -21 92 -51 302 -213 1475 -212 2810 1 3805 21
96 73 305 83 335 5 14 26 79 46 145 21 66 42 124 46 130 5 5 9 15 9 23 0 7 9
34 21 60 11 26 24 56 28 67 66 157 177 352 270 473 64 84 212 230 273 268 256
162 500 187 818 85 188 -60 321 21 320 196 -1 58 -5 74 -28 108 -15 22 -42 50
-60 62 -55 36 -256 96 -369 108 -35 4 -63 11 -63 16 0 12 -283 12 -295 0z
m6445 -2087 c235 -52 383 -125 513 -251 132 -127 204 -271 260 -513 19 -84 21
-124 21 -340 0 -187 -4 -269 -17 -345 -10 -55 -22 -127 -28 -160 -20 -115 -58
-270 -106 -430 -8 -27 -18 -66 -23 -85 -5 -19 -19 -60 -30 -90 -12 -30 -32
-86 -45 -125 -26 -77 -51 -144 -82 -220 -69 -166 -100 -239 -134 -313 -22 -46
-39 -86 -39 -88 0 -6 -195 -398 -227 -454 -16 -30 -51 -93 -76 -140 -39 -74
-80 -145 -181 -317 -14 -24 -32 -43 -39 -43 -8 0 -77 31 -153 69 -276 136
-452 221 -457 221 -3 0 -50 21 -104 46 -166 77 -194 90 -323 144 -119 49 -152
64 -210 89 -81 35 -334 134 -520 203 -118 43 -225 83 -238 88 -28 12 -28 13
-153 350 -39 107 -77 209 -85 225 -7 17 -27 66 -44 110 -49 123 -218 520 -261
613 -22 46 -39 85 -39 87 0 6 -88 191 -201 424 -60 123 -109 229 -109 236 0
32 707 414 1040 563 25 11 76 34 113 51 38 17 73 31 79 31 5 0 22 6 36 14 25
13 136 59 222 91 155 59 352 122 550 175 157 43 402 87 550 100 147 13 452 4
540 -16z m-3452 -1346 c129 -265 186 -386 260 -548 88 -193 234 -538 307 -725
25 -66 56 -142 67 -169 23 -57 15 -75 -29 -58 -15 6 -95 32 -178 57 -82 26
-190 59 -240 75 -49 15 -142 42 -205 60 -63 18 -136 39 -162 46 -27 8 -69 20
-95 28 -27 7 -77 21 -113 31 -36 9 -78 20 -95 25 -35 10 -538 134 -635 156
-36 8 -87 20 -115 26 -27 6 -72 16 -100 23 -27 7 -69 16 -92 20 -31 5 -43 12
-43 24 0 9 66 69 158 142 148 118 611 466 738 554 259 180 492 334 505 335 12
0 33 -33 67 -102z m-1732 -1328 c193 -39 286 -60 479 -105 39 -9 99 -23 135
-31 36 -8 90 -21 120 -29 30 -8 91 -23 135 -34 127 -31 393 -100 470 -123 39
-11 88 -24 110 -29 22 -5 51 -13 65 -18 14 -4 52 -16 85 -26 33 -9 78 -23 100
-30 22 -6 67 -20 100 -30 33 -9 78 -23 100 -30 22 -7 87 -27 145 -45 300 -94
516 -171 530 -188 9 -10 46 -113 84 -228 37 -115 74 -225 81 -244 16 -46 66
-209 122 -400 9 -30 20 -66 24 -80 5 -14 21 -68 35 -120 14 -52 31 -117 39
-145 7 -27 21 -77 30 -110 21 -74 74 -278 84 -325 5 -19 13 -53 19 -75 6 -22
18 -71 27 -110 9 -38 22 -95 30 -125 7 -30 20 -84 28 -120 8 -36 22 -96 31
-135 18 -83 42 -194 61 -285 7 -36 21 -99 30 -141 9 -42 15 -88 13 -102 -6
-49 -589 -678 -1058 -1142 -223 -221 -260 -270 -260 -347 0 -48 30 -116 66
-149 58 -52 75 -59 149 -59 61 0 77 4 116 29 63 40 687 673 953 966 112 124
131 141 140 127 2 -4 12 -55 21 -112 9 -58 22 -145 30 -195 13 -84 24 -166 60
-460 39 -317 83 -881 76 -962 -2 -24 -216 -13 -686 32 -265 26 -697 81 -910
116 -33 5 -89 14 -125 19 -36 5 -103 16 -150 24 -47 9 -124 22 -172 31 -251
43 -289 51 -528 101 -41 9 -106 22 -145 30 -76 16 -150 33 -260 59 -38 9 -97
23 -130 30 -33 8 -98 24 -145 36 -47 12 -110 27 -140 34 -30 7 -75 18 -100 25
-25 6 -67 18 -95 25 -245 65 -405 108 -430 116 -16 5 -122 36 -235 70 -113 33
-245 73 -295 90 -343 112 -488 161 -509 171 -14 6 -29 22 -35 37 -12 33 -126
380 -146 446 -8 28 -28 91 -44 140 -15 50 -35 115 -44 145 -9 30 -30 102 -47
160 -81 276 -135 478 -211 785 -50 199 -63 257 -94 390 -9 39 -21 86 -26 106
-5 20 -13 58 -19 85 -5 27 -23 114 -40 194 -17 80 -36 177 -43 217 l-11 72 79
88 c560 624 1115 1186 1610 1633 283 256 324 290 348 290 13 0 91 -14 173 -30z
m3176 -924 c40 -17 178 -72 233 -93 47 -18 20 -7 315 -131 218 -93 270 -115
438 -193 34 -16 92 -43 130 -60 190 -88 414 -203 419 -216 3 -9 -2 -28 -11
-43 -28 -48 -253 -376 -359 -525 -233 -325 -624 -828 -652 -839 -18 -7 -23 2
-34 56 -9 47 -56 259 -71 323 -33 140 -113 465 -120 490 -5 17 -16 59 -25 95
-16 66 -32 124 -59 215 -8 28 -17 61 -20 75 -8 31 -27 99 -60 215 -52 179 -58
201 -71 240 -8 22 -28 87 -46 145 -17 58 -42 136 -54 175 -31 90 -23 101 47
71z m1990 -924 c312 -176 590 -351 896 -563 62 -43 77 -70 51 -96 -15 -15 -33
-136 -33 -223 0 -87 18 -208 33 -223 6 -6 11 -18 11 -27 0 -27 69 -150 117
-210 53 -66 163 -156 230 -188 26 -13 61 -30 76 -38 16 -8 36 -14 45 -14 9 0
35 -7 57 -15 26 -9 81 -14 160 -14 79 0 134 5 160 14 22 8 49 15 60 15 11 0
30 6 41 14 11 8 36 17 55 21 33 6 37 4 85 -57 103 -129 209 -297 278 -440 85
-179 126 -342 126 -507 0 -214 -68 -391 -216 -564 -175 -204 -464 -386 -819
-514 -371 -134 -840 -231 -1355 -282 -113 -11 -170 -15 -440 -31 -204 -12
-727 -17 -737 -6 -4 4 -10 64 -14 134 -8 125 -30 412 -49 627 -9 107 -15 160
-46 415 -36 297 -99 712 -146 962 -12 66 -26 43 138 238 381 458 738 936 1052
1412 74 112 123 177 134 177 10 1 32 -7 50 -17z m-7713 -649 c6 -32 18 -85 25
-118 8 -33 21 -91 30 -130 40 -178 79 -338 134 -555 63 -245 80 -306 126 -465
13 -48 49 -177 66 -240 5 -16 23 -75 40 -130 18 -55 36 -116 42 -135 6 -19 25
-82 44 -139 19 -57 34 -112 34 -122 0 -23 -27 -25 -67 -5 -15 8 -46 21 -68 29
-69 26 -182 72 -440 180 -240 101 -294 125 -470 207 -44 20 -109 50 -144 66
-196 90 -406 201 -409 216 -12 61 971 1398 1028 1398 14 0 20 -13 29 -57z
m-1085 -1822 c253 -124 521 -251 532 -251 2 0 39 -16 81 -36 120 -55 131 -60
259 -114 65 -28 175 -74 244 -101 69 -27 134 -54 145 -59 11 -5 81 -32 155
-60 74 -28 144 -54 155 -59 11 -5 61 -23 110 -41 50 -17 100 -35 113 -40 28
-12 28 -13 153 -350 39 -107 77 -208 85 -225 7 -16 32 -77 55 -135 46 -116
196 -471 239 -565 15 -33 44 -96 65 -140 20 -44 44 -96 52 -115 9 -19 67 -140
130 -269 62 -129 113 -239 113 -246 0 -15 -211 -142 -445 -268 -158 -85 -546
-273 -684 -332 -74 -31 -142 -61 -150 -65 -9 -4 -36 -16 -60 -26 l-43 -18 -54
60 c-216 245 -552 318 -854 187 -133 -58 -282 -203 -348 -336 -22 -45 -43 -93
-46 -107 -17 -66 -31 -106 -40 -119 -15 -20 -300 -8 -421 18 -430 90 -669 332
-762 771 -25 119 -25 540 1 680 9 52 21 122 27 155 6 33 20 101 31 150 23 103
43 173 102 375 14 48 78 232 100 290 61 156 141 350 187 448 22 46 39 86 39
88 0 7 188 381 237 473 97 180 247 444 266 469 5 6 14 12 20 12 6 0 101 -44
211 -99z m2421 -975 c36 -13 160 -52 400 -126 50 -15 142 -42 205 -60 63 -18
158 -45 210 -60 233 -67 526 -142 780 -200 96 -22 193 -44 215 -50 80 -19 257
-58 390 -85 44 -9 109 -22 145 -30 71 -14 200 -38 325 -60 44 -8 118 -21 165
-29 127 -23 252 -43 380 -61 63 -9 138 -20 165 -25 28 -5 75 -12 105 -15 63
-7 256 -30 375 -46 44 -5 130 -14 190 -20 306 -26 484 -40 619 -48 128 -8 152
-12 164 -27 12 -16 13 -64 8 -289 -17 -760 -80 -1299 -212 -1820 -207 -821
-569 -1329 -1017 -1430 -96 -21 -272 -20 -378 4 -346 76 -705 306 -1109 711
-377 376 -721 832 -1083 1435 -145 242 -187 316 -187 330 0 7 102 81 227 165
232 156 424 291 618 436 132 98 158 135 158 228 0 70 -15 106 -65 153 -67 64
-155 80 -231 42 -23 -12 -114 -74 -202 -138 -348 -254 -683 -481 -709 -481
-12 0 -48 64 -125 223 -60 122 -120 247 -134 277 -14 30 -38 84 -55 120 -60
131 -81 178 -136 310 -31 74 -61 144 -66 155 -30 70 -79 191 -115 285 -7 19
-26 69 -43 110 -40 98 -43 110 -36 121 7 12 11 12 59 -5z"></path>
<path d="M7355 9030 c-22 -5 -61 -9 -87 -9 -26 -1 -59 -6 -75 -12 -15 -6 -48
-14 -73 -19 -107 -19 -333 -118 -455 -198 -38 -25 -72 -49 -75 -52 -3 -3 -32
-27 -65 -52 -148 -114 -305 -310 -394 -493 -32 -66 -65 -138 -73 -160 -34 -91
-40 -112 -48 -155 -5 -25 -13 -58 -18 -75 -24 -73 -34 -344 -19 -495 10 -95
52 -263 83 -337 8 -17 14 -35 14 -41 0 -5 27 -63 60 -128 171 -341 476 -613
835 -746 90 -34 112 -40 157 -48 27 -5 53 -12 60 -16 13 -8 131 -22 263 -31
93 -6 290 10 360 29 22 6 58 14 80 18 69 13 160 48 302 116 127 61 312 194
410 295 100 103 209 255 273 383 33 65 60 123 60 128 0 6 6 24 14 41 14 34 36
105 60 202 41 164 41 485 0 650 -24 97 -46 168 -60 202 -8 17 -14 36 -14 41 0
29 -126 252 -197 347 -106 143 -263 293 -398 379 -55 35 -257 136 -272 136 -8
0 -27 6 -41 14 -15 7 -52 20 -82 29 -30 8 -75 21 -100 28 -94 27 -411 46 -485
29z m264 -518 c19 -9 48 -34 65 -55 28 -35 31 -45 31 -112 0 -67 -3 -77 -31
-112 -39 -49 -87 -73 -147 -73 -111 0 -187 75 -187 185 0 77 40 142 105 171
43 19 124 17 164 -4z m71 -997 l0 -475 180 0 180 0 0 -125 0 -125 -545 0 -545
0 0 125 0 125 220 0 220 0 0 350 0 350 -190 0 -190 0 0 125 0 125 335 0 335 0
0 -475z"></path>
<path d="M7385 14479 c-238 -46 -433 -188 -535 -389 -12 -25 -29 -57 -36 -72
-8 -14 -14 -34 -14 -45 0 -10 -7 -36 -15 -58 -19 -55 -19 -265 0 -320 8 -22
15 -49 15 -61 0 -11 7 -29 15 -40 8 -10 15 -24 15 -31 0 -21 67 -126 114 -181
226 -263 584 -333 896 -176 121 61 246 188 310 314 12 25 29 57 36 72 8 14 14
34 14 45 0 10 7 36 15 58 20 57 20 257 -1 326 -57 192 -139 315 -279 419 -60
45 -161 100 -184 100 -10 0 -22 5 -28 11 -26 26 -252 44 -338 28z"></path>
</g>
</svg>
